Coordinates
version=1
nRows=8
nColumns=36
inDegrees=yes

Units are S.I. units (second, meters, Newtons, ...)
Angles are in degrees.

endheader
time	pelvis_tilt	pelvis_list	pelvis_rotation	pelvis_tx	pelvis_ty	pelvis_tz	hip_flexion_r	hip_adduction_r	hip_rotation_r	knee_angle_r	ankle_angle_r	subtalar_angle_r	hip_flexion_l	hip_adduction_l	hip_rotation_l	knee_angle_l	ankle_angle_l	subtalar_angle_l	lumbar_extension	lumbar_bending	lumbar_rotation	arm_flex_r	arm_add_r	arm_rot_r	elbow_flex_r	pro_sup_r	wrist_flex_r	wrist_dev_r	arm_flex_l	arm_add_l	arm_rot_l	elbow_flex_l	pro_sup_l	wrist_flex_l	wrist_dev_l
      1.70000000	      0.84567608	      0.97234974	      7.46215167	      0.22561829	      0.89465831	      0.24414879	     27.95186639	     -0.97791330	    -10.95762076	    -21.06026437	     -2.76728388	     -5.26650590	    -18.08665050	      0.50592251	      4.50926196	    -22.80814733	      5.13856394	     13.31841015	     -5.53458360	      1.21132192	    -13.00445093	    -10.57177011	    -14.38075215	     13.04946193	      6.63748980	     86.51662706	      0.00000000	      0.00000000	      4.55542233	    -17.64412032	     20.62048895	     30.71528218	     86.51662706	      0.00000000	      0.00000000
      1.71000000	      0.81378535	      0.20057860	      7.27596337	      0.24129796	      0.89461110	      0.24525996	     28.08716106	      0.01659400	    -10.34437705	    -22.54975991	     -4.18681292	     -6.69035796	    -17.52248716	     -0.46498266	      3.67389027	    -24.85893754	      2.65495736	     14.02906481	     -5.14426541	      2.12450396	    -12.61424578	    -10.57451614	    -14.56502542	     13.39491130	      6.67326195	     86.51662706	      0.00000000	      0.00000000	      3.97405534	    -17.31241320	     20.11786933	     30.77586327	     86.51662706	      0.00000000	      0.00000000
      1.72000000	      0.78126688	     -0.66302265	      7.04273277	      0.25686607	      0.89482522	      0.24635723	     28.20777928	      1.14818793	     -9.67529565	    -24.05180056	     -5.24986410	     -7.82863813	    -16.74765444	     -1.50705151	      2.88910624	    -27.13850967	     -0.22857810	     14.51842091	     -4.77976853	      3.13374275	    -12.17080969	    -10.51060165	    -14.77784299	     13.65350498	      6.78978613	     86.51662706	      0.00000000	      0.00000000	      3.39422265	    -16.96152474	     19.65457895	     30.78763964	     86.51662706	      0.00000000	      0.00000000
      1.73000000	      0.74785269	     -1.56708927	      6.77568891	      0.27230704	      0.89505795	      0.24744729	     28.26389471	      2.36696891	     -9.01239761	    -25.48124082	     -5.85652826	     -8.67810122	    -15.76639645	     -2.57682776	      2.20967915	    -29.65345219	     -3.40750790	     14.72359125	     -4.45198187	      4.18561084	    -11.69883967	    -10.38290749	    -15.01193666	     13.81012864	      6.99787824	     86.51662706	      0.00000000	      0.00000000	      2.82588227	    -16.60815322	     19.25394895	     30.74454901	     86.51662706	      0.00000000	      0.00000000
      1.74000000	      0.70993785	     -2.46461230	      6.49381228	      0.28750387	      0.89523276	      0.24859002	     28.20414458	      3.61107654	     -8.42759822	    -26.74288197	     -5.97195316	     -9.25281824	    -14.58771110	     -3.63044018	      1.68651448	    -32.39902489	     -6.71996664	     14.59607507	     -4.17305844	      5.22853264	    -11.22053125	    -10.19814839	    -15.25777458	     13.85422453	      7.30792806	     86.51662706	      0.00000000	      0.00000000	      2.28335011	    -16.26734825	     18.93968571	     30.64029653	     86.51662706	      0.00000000	      0.00000000
      1.75000000	      0.66689608	     -3.32134733	      6.22441425	      0.30233672	      0.89543511	      0.24980558	     27.98267941	      4.81874003	     -7.98305071	    -27.75982725	     -5.62609100	     -9.57538921	    -13.22252398	     -4.62790428	      1.36218695	    -35.35683354	     -9.96197161	     14.10906794	     -3.95681479	      6.22286724	    -10.75416647	     -9.96514573	    -15.50503885	     13.78103454	      7.72861866	     86.51662706	      0.00000000	      0.00000000	      1.78562656	    -15.94972124	     18.73408451	     30.46782351	     86.51662706	      0.00000000	      0.00000000
      1.76000000	      0.62728658	     -4.11696077	      6.00062878	      0.31676702	      0.89580110	      0.25103384	     27.56717583	      5.93676208	     -7.71672522	    -28.48977522	     -4.90085142	     -9.67141245	    -11.68320396	     -5.53539359	      1.26618775	    -38.49276704	    -12.91238660	     13.26491254	     -3.81677536	      7.14452946	    -10.31380605	     -9.69352265	    -15.74456373	     13.59245383	      8.26583589	     86.51662706	      0.00000000	      0.00000000	      1.35432316	    -15.66030898	     18.65620571	     30.21936436	     86.51662706	      0.00000000	      0.00000000
      1.77000000	      0.60774487	     -4.83997810	      5.85493769	      0.33082718	      0.89643684	      0.25216144	     26.94351795	      6.92531188	     -7.63764022	    -28.92719890	     -3.90874530	     -9.56794829	     -9.98559789	     -6.32517680	      1.41074433	    -41.75527643	    -15.36376154	     12.10087440	     -3.76315912	      7.98165220	     -9.90935646	     -9.39276168	    -15.96995846	     13.29726883	      8.92206660	     86.51662706	      0.00000000	      0.00000000	      1.00990823	    -15.39939395	     18.72011025	     29.88722055	     86.51662706	      0.00000000	      0.00000000
